<mxfile host="app.diagrams.net" agent="Mozilla/5.0 (Windows NT 10.0; Win64; x64) AppleWebKit/537.36 (KHTML, like Gecko) Chrome/140.0.0.0 Safari/537.36 Edg/140.0.0.0" version="28.2.5">
  <diagram name="Page-1" id="-mc81Yz3r002gq6EGLX-">
    <mxGraphModel dx="1034" dy="570" grid="1" gridSize="10" guides="1" tooltips="1" connect="1" arrows="1" fold="1" page="1" pageScale="1" pageWidth="850" pageHeight="1100" math="0" shadow="0">
      <root>
        <mxCell id="0" />
        <mxCell id="1" parent="0" />
        <mxCell id="Zf9-6YF3dKpPAu0ohBBO-4" style="edgeStyle=orthogonalEdgeStyle;rounded=0;orthogonalLoop=1;jettySize=auto;html=1;exitX=1;exitY=0.5;exitDx=0;exitDy=0;entryX=0.5;entryY=0;entryDx=0;entryDy=0;" edge="1" parent="1" source="Zf9-6YF3dKpPAu0ohBBO-1" target="Zf9-6YF3dKpPAu0ohBBO-2">
          <mxGeometry relative="1" as="geometry" />
        </mxCell>
        <mxCell id="Zf9-6YF3dKpPAu0ohBBO-1" value="Start" style="ellipse;whiteSpace=wrap;html=1;" vertex="1" parent="1">
          <mxGeometry x="10" y="10" width="120" height="80" as="geometry" />
        </mxCell>
        <mxCell id="Zf9-6YF3dKpPAu0ohBBO-29" style="edgeStyle=orthogonalEdgeStyle;rounded=0;orthogonalLoop=1;jettySize=auto;html=1;exitX=1;exitY=0.5;exitDx=0;exitDy=0;entryX=0;entryY=0.5;entryDx=0;entryDy=0;" edge="1" parent="1" source="Zf9-6YF3dKpPAu0ohBBO-2" target="Zf9-6YF3dKpPAu0ohBBO-5">
          <mxGeometry relative="1" as="geometry" />
        </mxCell>
        <mxCell id="Zf9-6YF3dKpPAu0ohBBO-2" value="Make number variables" style="ellipse;whiteSpace=wrap;html=1;" vertex="1" parent="1">
          <mxGeometry x="150" y="70" width="120" height="80" as="geometry" />
        </mxCell>
        <mxCell id="Zf9-6YF3dKpPAu0ohBBO-31" style="edgeStyle=orthogonalEdgeStyle;rounded=0;orthogonalLoop=1;jettySize=auto;html=1;entryX=0.5;entryY=0;entryDx=0;entryDy=0;" edge="1" parent="1" source="Zf9-6YF3dKpPAu0ohBBO-5" target="Zf9-6YF3dKpPAu0ohBBO-12">
          <mxGeometry relative="1" as="geometry" />
        </mxCell>
        <mxCell id="Zf9-6YF3dKpPAu0ohBBO-5" value="Input number" style="ellipse;whiteSpace=wrap;html=1;" vertex="1" parent="1">
          <mxGeometry x="305" y="70" width="120" height="90" as="geometry" />
        </mxCell>
        <mxCell id="Zf9-6YF3dKpPAu0ohBBO-33" style="edgeStyle=orthogonalEdgeStyle;rounded=0;orthogonalLoop=1;jettySize=auto;html=1;entryX=0.5;entryY=0;entryDx=0;entryDy=0;" edge="1" parent="1" source="Zf9-6YF3dKpPAu0ohBBO-10" target="Zf9-6YF3dKpPAu0ohBBO-34">
          <mxGeometry relative="1" as="geometry">
            <mxPoint x="535" y="200" as="targetPoint" />
          </mxGeometry>
        </mxCell>
        <mxCell id="Zf9-6YF3dKpPAu0ohBBO-10" value="correct&amp;nbsp; YAYYAYAY" style="ellipse;whiteSpace=wrap;html=1;" vertex="1" parent="1">
          <mxGeometry x="480" y="80" width="110" height="60" as="geometry" />
        </mxCell>
        <mxCell id="Zf9-6YF3dKpPAu0ohBBO-32" style="edgeStyle=orthogonalEdgeStyle;rounded=0;orthogonalLoop=1;jettySize=auto;html=1;entryX=-0.011;entryY=0.68;entryDx=0;entryDy=0;entryPerimeter=0;" edge="1" parent="1" source="Zf9-6YF3dKpPAu0ohBBO-12" target="Zf9-6YF3dKpPAu0ohBBO-34">
          <mxGeometry relative="1" as="geometry">
            <mxPoint x="510" y="230" as="targetPoint" />
          </mxGeometry>
        </mxCell>
        <mxCell id="Zf9-6YF3dKpPAu0ohBBO-12" value="Wrong" style="ellipse;whiteSpace=wrap;html=1;" vertex="1" parent="1">
          <mxGeometry x="350" y="190" width="120" height="80" as="geometry" />
        </mxCell>
        <mxCell id="Zf9-6YF3dKpPAu0ohBBO-28" style="edgeStyle=orthogonalEdgeStyle;rounded=0;orthogonalLoop=1;jettySize=auto;html=1;exitX=1;exitY=0.5;exitDx=0;exitDy=0;entryX=0.01;entryY=0.406;entryDx=0;entryDy=0;entryPerimeter=0;" edge="1" parent="1" source="Zf9-6YF3dKpPAu0ohBBO-5">
          <mxGeometry relative="1" as="geometry">
            <mxPoint x="481.20000000000005" y="108.41999999999996" as="targetPoint" />
          </mxGeometry>
        </mxCell>
        <mxCell id="Zf9-6YF3dKpPAu0ohBBO-37" style="edgeStyle=orthogonalEdgeStyle;rounded=0;orthogonalLoop=1;jettySize=auto;html=1;entryX=0.5;entryY=0;entryDx=0;entryDy=0;" edge="1" parent="1" source="Zf9-6YF3dKpPAu0ohBBO-34" target="Zf9-6YF3dKpPAu0ohBBO-35">
          <mxGeometry relative="1" as="geometry">
            <Array as="points">
              <mxPoint x="580" y="295" />
              <mxPoint x="615" y="295" />
            </Array>
          </mxGeometry>
        </mxCell>
        <mxCell id="Zf9-6YF3dKpPAu0ohBBO-38" style="edgeStyle=orthogonalEdgeStyle;rounded=0;orthogonalLoop=1;jettySize=auto;html=1;entryX=1;entryY=0.5;entryDx=0;entryDy=0;" edge="1" parent="1" source="Zf9-6YF3dKpPAu0ohBBO-34" target="Zf9-6YF3dKpPAu0ohBBO-36">
          <mxGeometry relative="1" as="geometry">
            <Array as="points">
              <mxPoint x="540" y="310" />
            </Array>
          </mxGeometry>
        </mxCell>
        <mxCell id="Zf9-6YF3dKpPAu0ohBBO-34" value="Play again?" style="ellipse;whiteSpace=wrap;html=1;" vertex="1" parent="1">
          <mxGeometry x="500" y="190" width="110" height="60" as="geometry" />
        </mxCell>
        <mxCell id="Zf9-6YF3dKpPAu0ohBBO-35" value="N" style="ellipse;whiteSpace=wrap;html=1;" vertex="1" parent="1">
          <mxGeometry x="560" y="340" width="110" height="60" as="geometry" />
        </mxCell>
        <mxCell id="Zf9-6YF3dKpPAu0ohBBO-39" style="edgeStyle=orthogonalEdgeStyle;rounded=0;orthogonalLoop=1;jettySize=auto;html=1;entryX=0.5;entryY=1;entryDx=0;entryDy=0;" edge="1" parent="1" source="Zf9-6YF3dKpPAu0ohBBO-36" target="Zf9-6YF3dKpPAu0ohBBO-2">
          <mxGeometry relative="1" as="geometry" />
        </mxCell>
        <mxCell id="Zf9-6YF3dKpPAu0ohBBO-36" value="Y" style="ellipse;whiteSpace=wrap;html=1;" vertex="1" parent="1">
          <mxGeometry x="305" y="280" width="110" height="60" as="geometry" />
        </mxCell>
      </root>
    </mxGraphModel>
  </diagram>
</mxfile>
